<svg xmlns="http://www.w3.org/2000/svg" width="385" height="351" viewBox="0 0 385 351">
    <g fill="none" fill-rule="evenodd">
        <path fill="#8DC63F" fill-opacity=".704" d="M323.165 329.51l-34.155 21.156V308.38zM282.2 259.337l-34.166 21.144v-42.3z"/>
        <path fill="#8DC63F" fill-opacity=".447" d="M240.717 235.425l-34.155 21.144V214.28z"/>
        <path fill="#8DC63F" fill-opacity=".294" d="M323.162 235.679l-34.154 21.143v-42.287z"/>
        <path fill="#AED677" d="M364.512 163.953l-34.166 21.144V142.82z"/>
        <path fill="#8DC63F" fill-opacity=".704" d="M323.162 140.427l-34.154 21.156v-42.3z"/>
        <path fill="#AED677" d="M197.694 306.388l-34.167 21.144v-42.3z"/>
        <path fill="#8DC63F" fill-opacity=".447" d="M249.586 235.69l34.154-21.157v42.288z"/>
        <path fill="#AED677" d="M208.999 211.39l34.179-21.156v42.313z"/>
        <path fill="#8DC63F" fill-opacity=".704" d="M209.774 259.204l34.167-21.144v42.288z"/>
        <path fill="#AED677" d="M126.032 258.695l34.167-21.143v42.287z"/>
        <path fill="#8DC63F" fill-opacity=".704" d="M167.26 282.355l34.167-21.157v42.288z"/>
        <path fill="#8DC63F" fill-opacity=".447" d="M167.018 141.467l34.155-21.156v42.288z"/>
        <path fill="#8DC63F" fill-opacity=".704" d="M332.48 235.037l34.166-21.144v42.288zM284.03 350.924l-75.468-44.789 75.467-44.8zM249.912 188.518l75.467-44.8v89.589z"/>
        <path fill="#8DC63F" fill-opacity=".294" d="M280.965 164.582l-75.467 44.8v-89.576z"/>
        <path fill="#8DC63F" fill-opacity=".447" d="M385 247.175l-14.453 8.95v-17.888z"/>
        <path fill="#8DC63F" fill-opacity=".71" d="M220.17 294.226l-14.442 8.95v-17.9zM220.17 270.7l-14.442 8.951v-17.9zM241.032 281.883l-14.441 8.963v-17.9z"/>
        <path fill="#8DC63F" fill-opacity=".447" d="M282.781 211.705l-14.466 8.95v-17.9zM261.143 224.423l-14.465 8.963v-17.9zM261.143 200.523l-14.465 8.95v-17.888zM364.707 211.319l-14.453 8.95v-17.9zM343.456 223.65l-14.44 8.962v-17.9zM343.456 200.136l-14.44 8.95v-17.888z"/>
        <path fill="#AED677" d="M198.797 259.264l-14.466 8.962v-17.9z"/>
        <path fill="#8DC63F" fill-opacity=".71" d="M179.219 270.58l-14.466 8.95v-17.9zM179.219 247.175l-14.466 8.95v-17.888zM159.107 306.822l-14.44 8.95v-17.9zM137.47 247.441l-14.442 8.95v-17.9z"/>
        <path fill="#8DC63F" fill-opacity=".294" d="M208.236 282.475l14.453-8.95v17.9z"/>
        <path fill="#8DC63F" fill-opacity=".447" d="M249.586 211.125l14.465-8.95v17.9zM331.122 211.9l14.453-8.951v17.9zM269.673 153.29l14.465-8.962v17.913z"/>
        <path fill="#8DC63F" fill-opacity=".71" d="M165.722 258.83l14.453-8.951v17.9z"/>
        <path fill="#8DC63F" fill-opacity=".447" d="M187.36 173.728l14.453-8.95v17.887z"/>
        <path fill="#8DC63F" fill-opacity=".71" d="M145.114 294.298l14.466-8.95v17.9z"/>
        <path fill="#8DC63F" fill-opacity=".447" d="M200.541 210.23l-34.179 21.157v-42.313z"/>
        <path fill="#AED677" d="M159.567 140.04L125.4 161.198v-42.312zM118.072 116.128l-34.154 21.144V94.996z"/>
        <path fill="#8DC63F" fill-opacity=".447" d="M200.541 116.394l-34.179 21.156V95.263z"/>
        <path fill="#8DC63F" fill-opacity=".704" d="M241.891 44.67l-34.179 21.143V23.526zM166.366.004l34.18 21.119-34.18 21.18z"/>
        <path fill="#8DC63F" fill-opacity=".294" d="M75.075 187.092l-34.18 21.144v-42.275zM126.952 116.406l34.167-21.143v42.287z"/>
        <path fill="#8DC63F" fill-opacity=".704" d="M86.378 92.107l34.154-21.156v42.3zM87.153 139.92l34.155-21.157v42.313z"/>
        <path fill="#8DC63F" fill-opacity=".447" d="M3.399 139.424l34.179-21.168v42.312z"/>
        <path fill="#8DC63F" fill-opacity=".704" d="M44.652 163.058l34.154-21.156v42.3z"/>
        <path fill="#8DC63F" fill-opacity=".294" d="M78.548 43.333L44.381 22.189 78.548 1.032z"/>
        <path fill="#8DC63F" fill-opacity=".704" d="M209.835 115.765l34.18-21.156v42.288zM85.918 186.85l75.467-44.801v89.589z"/>
        <path fill="#8DC63F" fill-opacity=".294" d="M127.291 69.223l75.443-44.776v89.576z"/>
        <path fill="#8DC63F" fill-opacity=".704" d="M158.315 45.305l-75.43 44.788V.503z"/>
        <path fill="#8DC63F" fill-opacity=".447" d="M262.356 127.88l-14.441 8.975v-17.901zM97.548 174.948l-14.465 8.938v-17.888zM97.548 151.416l-14.465 8.963v-17.9zM118.41 162.599l-14.465 8.95v-17.9zM160.137 92.434l-14.441 8.925V83.471zM138.499 105.151l-14.44 8.95v-17.9zM138.499 81.24l-14.44 8.95V72.288zM242.086 92.023l-14.465 8.962V83.097zM220.823 104.377l-14.453 8.95v-17.9zM220.823 80.852l-14.453 8.95v-17.9zM76.153 139.993l-14.454 8.95V131.03zM56.573 151.296l-14.44 8.938v-17.876zM56.573 127.88l-14.44 8.975v-17.901zM36.486 187.54l-14.453 8.937v-17.876zM14.848 128.152L.383 137.09v-17.876z"/>
        <path fill="#8DC63F" fill-opacity=".71" d="M85.602 163.204l14.441-8.975v17.9z"/>
        <path fill="#AED677" d="M126.952 91.853l14.454-8.95v17.876z"/>
        <path fill="#8DC63F" fill-opacity=".294" d="M208.49 92.627l14.453-8.95v17.9z"/>
        <path fill="#8DC63F" fill-opacity=".447" d="M147.04 34.006l14.465-8.95v17.888z"/>
        <path fill="#AED677" d="M43.101 139.545l14.441-8.963v17.9z"/>
        <path fill="#8DC63F" fill-opacity=".447" d="M64.739 54.45l14.44-8.976v17.913zM22.493 175.009l14.466-8.95v17.888z"/>
        <g fill-rule="nonzero">
            <path fill="#FFF" d="M186.18 62L86 97.268l15.831 131.298L186.285 275l84.89-47.063L287 96.644z"/>
            <path fill="#B91515" d="M276 103.944L185 73v190l76.262-42.087 14.737-116.969z"/>
            <path fill="#D62A2A" d="M97 104.504l13.459 116.969L185 263V73l-88 31.504z"/>
            <path fill="#FFF" d="M211 175.722l-25.065 11.74h-26.418l-12.419 31.11L124 219l61.935-138L211 175.723v-.001zm-2.423-5.91l-22.475-44.565-18.437 43.798h18.269l22.643.768v-.001z"/>
            <path fill="#FFF" d="M185 81l.167 44.115 20.987 43.7h-21.106l-.048 18.3 29.185.027 13.64 31.45L250 219 185 81z"/>
        </g>
        <path fill="#8DC63F" fill-opacity=".704" d="M46 275.002L64 286v-22z"/>
        <path fill="#8DC63F" fill-opacity=".704" d="M68 236l10 6v-12z" opacity=".5"/>
        <path fill="#8DC63F" fill-opacity=".704" d="M319 41.003L285 62V20z" opacity=".4"/>
        <path fill="#8DC63F" fill-opacity=".704" d="M301 74.001L317 84V64z"/>
    </g>
</svg>
